<?xml version="1.0" encoding="UTF-8" standalone="no"?>
<svg
   xmlns:dc="http://purl.org/dc/elements/1.1/"
   xmlns:cc="http://creativecommons.org/ns#"
   xmlns:rdf="http://www.w3.org/1999/02/22-rdf-syntax-ns#"
   xmlns:svg="http://www.w3.org/2000/svg"
   xmlns="http://www.w3.org/2000/svg"
   xmlns:sodipodi="http://sodipodi.sourceforge.net/DTD/sodipodi-0.dtd"
   xmlns:inkscape="http://www.inkscape.org/namespaces/inkscape"
   width="512"
   height="512"
   DOECode="svg3336"
   version="1.1"
   inkscape:version="0.91 r13725"
   sodipodi:docname="icon.svg">
  <metadata
     DOECode="metadata3352">
    <rdf:RDF>
      <cc:Work
         rdf:about="">
        <dc:format>image/svg+xml</dc:format>
        <dc:type
           rdf:resource="http://purl.org/dc/dcmitype/StillImage" />
        <dc:title></dc:title>
      </cc:Work>
    </rdf:RDF>
  </metadata>
  <defs
     DOECode="defs3350" />
  <sodipodi:namedview
     pagecolor="#ffffff"
     bordercolor="#666666"
     borderopacity="1"
     objecttolerance="10"
     gridtolerance="10"
     guidetolerance="10"
     inkscape:pageopacity="0"
     inkscape:pageshadow="2"
     inkscape:window-width="1600"
     inkscape:window-height="838"
     DOECode="namedview3348"
     showgrid="false"
     inkscape:zoom="1.3066406"
     inkscape:cx="238.39761"
     inkscape:cy="256"
     inkscape:window-x="-8"
     inkscape:window-y="-8"
     inkscape:window-maximized="1"
     inkscape:current-layer="svg3336" />
  <rect
     style="fill:#005c7a;fill-opacity:1"
     DOECode="rect4206"
     width="512"
     height="512"
     x="0"
     y="0" />
  <g
     DOECode="g4197"
     transform="translate(-0.45588866,26.860399)"
     style="fill:#fefcd5;fill-opacity:1">
    <g
       DOECode="g4191"
       style="fill:#fefcd5;fill-opacity:1">
      <polygon
         style="fill:#fefcd5;fill-opacity:1"
         DOECode="polygon3340"
         points="3.1,50.8 15.5,50.8 18.6,47.7 18.6,35.3 34.1,50.8 46.6,50.8 49.7,47.7 49.7,4.3 46.6,1.2 34.1,1.2 31,4.3 31,16.7 15.5,1.2 3.1,1.2 0,4.3 0,47.7 "
         transform="matrix(2.6845638,0,0,2.6845638,55.999997,44.778523)" />
      <polygon
         style="fill:#fefcd5;fill-opacity:1"
         DOECode="polygon3342"
         points="65.2,1.2 52.8,1.2 49.7,4.3 49.7,22.9 65.2,38.4 65.2,47.7 68.3,50.8 80.7,50.8 83.8,47.7 83.8,38.4 99.3,22.9 99.3,10.5 99.3,4.3 96.2,1.2 83.8,1.2 80.7,4.3 80.7,10.5 74.5,16.7 68.3,10.5 68.3,4.3 "
         transform="matrix(2.6845638,0,0,2.6845638,55.999997,44.778523)" />
      <polygon
         style="fill:#fefcd5;fill-opacity:1"
         DOECode="polygon3344"
         points="149,41.5 149,32.2 145.9,29.1 130.4,29.1 130.4,32.2 118,32.2 118,19.8 130.4,19.8 130.4,22.9 145.9,22.9 149,19.8 149,10.5 139.7,1.2 108.6,1.2 99.3,10.5 99.3,41.5 108.6,50.8 139.7,50.8 "
         transform="matrix(2.6845638,0,0,2.6845638,55.999997,44.778523)" />
      <text
         DOECode="text3346"
         style="font-weight:bold;font-size:75.16778564px;font-family:sans-serif;fill:#fefcd5;fill-opacity:1"
         x="55.999996"
         y="240.30428">Health</text>
    </g>
    <text
       transform="scale(0.91700844,1.0905025)"
       sodipodi:linespacing="300%"
       y="373.93713"
       x="48.22176"
       style="font-weight:bold;font-size:126.48239136px;line-height:300%;font-family:sans-serif;fill:#fefcd5;fill-opacity:1"
       DOECode="text3346-1">
      <tspan
         DOECode="tspan4173"
         style="font-style:normal;font-variant:normal;font-weight:bold;font-stretch:normal;font-size:151.44354248px;line-height:300%;font-family:sans-serif;-inkscape-font-specification:'sans-serif, Bold';text-align:start;writing-mode:lr-tb;text-anchor:start;fill:#fefcd5;fill-opacity:1">PODs</tspan>
    </text>
  </g>
</svg>
